<svg width="12" height="12" viewBox="0 0 12 12" fill="none" xmlns="http://www.w3.org/2000/svg">
<path d="M2.84961 3.5499C2.84961 1.81021 4.25991 0.399902 5.99961 0.399902C7.73931 0.399902 9.14961 1.81021 9.14961 3.5499V5.4399H7.74961V3.5499C7.74961 2.5834 6.96611 1.7999 5.99961 1.7999C5.03311 1.7999 4.24961 2.5834 4.24961 3.5499V5.4399H2.84961V3.5499Z" fill="#EA3553"/>
<path fill-rule="evenodd" clip-rule="evenodd" d="M1.09961 5.9999V11.5999H10.8996V5.9999H1.09961ZM6.93529 8.33324C6.93529 8.6787 6.74759 8.98033 6.46862 9.14171V10.1999H5.53529V9.14171C5.25631 8.98033 5.06862 8.6787 5.06862 8.33324C5.06862 7.81777 5.48649 7.3999 6.00195 7.3999C6.51742 7.3999 6.93529 7.81777 6.93529 8.33324Z" fill="#EA3553"/>
</svg>
