<svg t="1729240311759" class="icon" viewBox="0 0 1032 1024" version="1.1" xmlns="http://www.w3.org/2000/svg" p-id="1077" width="200" height="200"><path d="M606.901081 722.142411c-8.861629 0-17.763416-2.91818-25.192726-8.901787L361.854295 535.834033c-17.254742-13.934978-19.958743-39.208021-6.037152-56.47615 13.934978-17.268128 39.208021-19.958743 56.47615-6.037151l219.854059 177.406591c17.254742 13.921592 19.958743 39.208021 6.037152 56.476149-7.937984 9.825431-19.557159 14.938939-31.283423 14.938939z" p-id="1078"></path><path d="M387.100566 544.709047c-12.181393 0-24.228924-5.528478-32.113364-16.00983-13.332601-17.723257-9.785273-42.902597 7.937985-56.235199l219.867445-165.479535c17.723257-13.332601 42.902597-9.785273 56.235199 7.937985 13.332601 17.723257 9.785273 42.902597-7.937984 56.235198L411.222401 536.637201a39.95363 39.95363 0 0 1-24.121835 8.071846z" p-id="1079"></path><path d="M516.424121 1024c-69.648117 0-137.248154-13.520007-200.899277-40.198596-61.482568-25.768331-116.713806-62.647163-164.127534-109.632535-47.440501-46.998758-84.694145-101.761481-110.730199-162.735375C13.680641 648.2375 0 581.146136 0 511.993307S13.680641 375.749114 40.653725 312.566506c26.036054-60.987281 63.289698-115.736617 110.730199-162.735375 47.413729-46.971986 102.644966-83.864204 164.127534-109.632535C379.175968 13.520007 446.762618 0 516.424121 0s137.248154 13.520007 200.899277 40.198596c61.495954 25.768331 116.713806 62.647163 164.127535 109.632535 47.440501 46.998758 84.707531 101.761481 110.730198 162.735375 26.973084 63.182608 40.653725 130.273972 40.653725 199.426801s-13.680641 136.244193-40.653725 199.426801c-26.036054 60.987281-63.289698 115.736617-110.730198 162.735375-47.413729 46.971986-102.63158 83.864204-164.127535 109.632535-63.651124 26.678589-131.25116 40.198596-200.899277 40.198596z m0-943.683125C275.955397 80.316875 80.316875 273.974247 80.316875 511.993307s195.638522 431.676432 436.107246 431.676432 436.107246-193.657372 436.107246-431.676432S756.879459 80.316875 516.424121 80.316875z" p-id="1080"></path></svg>