<svg t="1720679399437" class="icon" viewBox="0 0 1024 1024" version="1.1" xmlns="http://www.w3.org/2000/svg" p-id="9731" width="200" height="200"><path d="M0 0h1024v1024H0z" fill="#FFFFFF" fill-opacity="0" p-id="9732"></path><path d="M292 552c99.411 0 180 80.589 180 180s-80.589 180-180 180-180-80.589-180-180 80.589-180 180-180z m0 64c-64.065 0-116 51.935-116 116s51.935 116 116 116 116-51.935 116-116-51.935-116-116-116z m500 161c0 35.346-28.654 64-64 64H552c0-35.346 28.654-64 64-64h176zM292 667c35.899 0 65 29.101 65 65s-29.101 65-65 65-65-29.101-65-65 29.101-65 65-65z m620-44c0 35.346-28.654 64-64 64H552c0-35.346 28.654-64 64-64h296zM292 112c99.411 0 180 80.589 180 180s-80.589 180-180 180-180-80.589-180-180 80.589-180 180-180z m0 64c-64.065 0-116 51.935-116 116s51.935 116 116 116 116-51.935 116-116-51.935-116-116-116z m500 161c0 35.346-28.654 64-64 64H552c0-35.346 28.654-64 64-64h176z m120-154c0 35.346-28.654 64-64 64H552c0-35.346 28.654-64 64-64h296z" fill="#666666" p-id="9733"></path></svg>