<svg t="1719802396386" class="icon" viewBox="0 0 1213 1024" version="1.1" xmlns="http://www.w3.org/2000/svg" p-id="7067" width="200" height="200"><path d="M209.548124 568.908272l379.62235 358.119266c23.626846 22.26157 23.513073 58.289665-0.26547 80.399538a63.561145 63.561145 0 0 1-85.822715-0.227546L32.744988 563.52302A56.886466 56.886466 0 0 1 0.016308 510.580683c-0.379243-14.942178 5.499025-30.036054 17.634805-41.489196L497.128172 16.844083A63.561145 63.561145 0 0 1 582.912963 16.578612c23.778543 22.147797 23.892316 58.175893 0.26547 80.437463L203.556083 455.135341H1156.707782a56.886466 56.886466 0 0 1 0 113.772931H209.548124z" fill="#2A2A2A" p-id="7068"></path></svg>