<svg t="1719396218794" class="icon" viewBox="0 0 1024 1024" version="1.1" xmlns="http://www.w3.org/2000/svg" p-id="4287" width="200" height="200"><path d="M810.666667 213.333333h63.850666A106.709333 106.709333 0 0 1 981.333333 319.872v298.922667A106.624 106.624 0 0 1 874.517333 725.333333H810.666667v149.184C810.666667 933.461333 763.008 981.333333 704.192 981.333333H319.786667A106.581333 106.581333 0 0 1 213.333333 874.517333V725.333333H149.482667A106.709333 106.709333 0 0 1 42.666667 618.794667V319.872A106.624 106.624 0 0 1 149.482667 213.333333H213.333333V149.482667C213.333333 90.538667 260.992 42.666667 319.808 42.666667H704.213333C763.072 42.666667 810.666667 90.453333 810.666667 149.482667V213.333333zM298.666667 149.546667V213.333333h426.666666V149.546667A21.226667 21.226667 0 0 0 704.170667 128H319.829333C308.373333 128 298.666667 137.642667 298.666667 149.546667z m0 469.269333v255.701333A21.312 21.312 0 0 0 319.829333 896h384.341334c11.456 0 21.162667-9.6 21.162666-21.482667V618.816A21.312 21.312 0 0 0 704.170667 597.333333H319.829333c-11.456 0-21.162667 9.6-21.162666 21.482667zM810.666667 640h63.850666A21.290667 21.290667 0 0 0 896 618.794667V319.872c0-11.648-9.6-21.205333-21.482667-21.205333H149.482667A21.290667 21.290667 0 0 0 128 319.872v298.922667c0 11.648 9.6 21.205333 21.482667 21.205333H213.333333v-21.184C213.333333 559.872 260.992 512 319.808 512H704.213333c58.858667 0 106.453333 47.786667 106.453334 106.816V640z" fill="" p-id="4288"></path></svg>