<svg t="1725247256666" class="icon" viewBox="0 0 1078 1024" version="1.1" xmlns="http://www.w3.org/2000/svg" p-id="5093" width="200" height="200"><path d="M413.459076 614.179005c14.739963 0 26.686212-11.94625 26.686213-26.686212v-80.058637h106.744849c14.739963 0 26.686212-11.956674 26.686212-26.686212 0-14.739963-11.94625-26.686212-26.686212-26.686213h-106.744849v-53.372424h106.79697c14.739963 0 26.686212-11.94625 26.686212-26.686212s-11.94625-26.686212-26.686212-26.686213h-93.078589l-0.959036-0.959035 85.448001-85.343758c10.142846-11.018487 9.788419-28.06222-0.802672-38.642886-10.580666-10.580666-27.624399-10.935092-38.642886-0.802671l-85.395879 85.395879-85.395879-85.395879c-11.008063-10.132421-28.06222-9.777995-38.642886 0.802671-10.580666 10.580666-10.935092 27.624399-0.802672 38.642886l85.39588 85.395879-0.959036 0.906914h-93.07859c-14.739963 0-26.686212 11.94625-26.686212 26.686213s11.94625 26.686212 26.686212 26.686212h106.744849v53.372424h-106.744849c-14.739963 0-26.686212 11.94625-26.686212 26.686213s11.94625 26.686212 26.686212 26.686212h106.744849v80.058637c0 14.729538 11.94625 26.686212 26.686212 26.686212z" fill="#1890FF" p-id="5094"></path><path d="M484.802997 780.206857c12.23813-12.16516 25.716752-22.61031 40.237804-31.04357a136.968027 136.968027 0 0 1-24.173955-35.682385l-50.568287 45.543774a52.51242 52.51242 0 0 1-37.17306 15.417542c-13.947716 0-27.322095-5.545728-37.17306-15.417542L107.683036 517.514456c-10.0803-27.113609-11.258246-18.357195 0.802671-36.829058h91.483672v-293.548335c0-29.479925 23.892499-53.372424 53.372424-53.372424h320.234547c29.479925 0 53.372424 23.892499 53.372424 53.372424v293.548335h89.78451c12.790618-17.179249 29.511198-31.220783 48.827429-40.790293-18.576106-18.336347-39.914651-12.206857-39.914651-12.206857h-45.262317V187.189185c0-58.949426-47.795423-106.744849-106.744849-106.744849h-320.234547c-58.949426 0-106.744849 47.795423-106.744849 106.744849v240.551185H91.681733s-19.858295-5.128756-34.535711 15.261177C29.396531 481.602736 34.254255 518.64028 70.541249 554.927274l268.196433 242.04186c31.283329 31.325026 77.296197 38.799251 115.605506 22.433097 8.370714-14.124929 18.555257-27.290822 30.459809-39.195374z" fill="#1890FF" p-id="5095"></path><path d="M743.909439 744.441078c21.057089-22.526916 33.95195-52.757391 33.95195-85.948367 0-69.446698-56.489291-125.935988-125.935988-125.935988s-125.935988 56.489291-125.935988 125.935988c0 33.316068 13.030377 63.609089 34.212558 86.208975-13.478622 7.828651-25.998208 17.523251-37.360697 28.823194-34.535711 34.535711-53.601759 80.486033-53.601759 129.396856 0 29.657138 7.31786 50.703803 22.276732 64.255396 24.069713 21.755518 59.887613 18.034042 101.292939 13.801775 19.003502-1.928496 38.642886-3.982083 59.376823-3.982083s40.37332 1.991042 59.376822 3.982083c16.178516 1.667888 31.512664 3.210685 45.637592 3.210685 22.016125 0 41.019627-3.784022 55.655347-17.075006 15.021419-13.541168 22.276733-34.535711 22.276733-64.255396 0-48.848278-19.066048-94.809024-53.601759-129.40728-11.299943-11.425035-24.017591-21.119635-37.621305-29.010832z m-91.984038-170.802182c46.79469 0 84.853815 38.059125 84.853816 84.853815 0 46.79469-38.06955 84.853815-84.853816 84.853816-46.79469 0-84.853815-38.06955-84.853815-84.853816 0.062546-46.79469 38.132095-84.853815 84.853815-84.853815zM785.439857 936.623504c-10.528545 9.496539-39.216223 6.546461-69.582214 3.471292-19.128594-1.928496-40.759019-4.169721-63.546543-4.169721s-44.417949 2.251649-63.546543 4.169721c-30.365991 3.085593-59.053669 6.035671-69.582213-3.471292-5.775063-5.264272-8.72514-16.564215-8.725141-33.764314 0-58.793061 36.005538-109.382197 87.105465-130.877107 16.491245 7.964166 34.983956 12.394495 54.498249 12.394495 21.244727 0 41.26981-5.326818 58.855607-14.63572-0.708853 0.959036-1.480251 1.928496-2.314195 2.824986 50.318104 21.828488 85.625214 72.0215 85.625214 130.241225-0.062546 17.189673-3.012623 28.552162-8.787686 33.816435z m0 0" fill="#1890FF" p-id="5096"></path><path d="M969.084779 685.97117c-11.425035-11.425035-24.132258-21.119635-37.746396-29.083801 21.369818-22.850069 34.33765-53.664305 33.95195-87.418194-0.187637-14.760811-2.887532-28.88574-7.766105-42.041209 0-0.062546-0.062546-0.125092-0.062545-0.260607-0.198062-0.448245-0.323153-0.89649-0.510791-1.344735-17.971496-47.055298-63.421451-80.809186-116.564541-81.257431-44.094796-0.385699-83.060836 21.953579-105.910905 56.103591-9.11084 13.666259 0.646307 31.960909 17.075006 31.960909 6.869615 0 13.218014-3.398322 17.075006-9.11084 3.273231-4.878573 7.057252-9.433993 11.237397-13.541168 1.094552-0.646307 2.178679-1.417705 3.210685-2.314194 15.407118-13.666259 35.755355-21.891033 58.021663-21.442789 36.391237 0.708853 67.330564 24.580503 78.630508 57.448326 3.085593 9.11084 4.617966 18.930532 4.367782 29.073378-1.094552 43.396368-35.23414 79.33936-78.567962 82.414529-2.053587 0.125092-4.107175 0.198062-6.098216 0.260607-1.344735 0-2.699894 0.125092-3.982083 0.385699-9.559085 0-17.90895 6.744523-19.837446 16.178516 0 0.125092-0.062546 0.260608-0.062546 0.3857-2.574803 12.258979 6.483916 23.944621 19.003502 24.455411 1.605342 0.062546 3.210685 0.062546 4.878573 0.062546 19.712354 0 38.319733-4.55542 54.946494-12.644678 50.318104 21.828488 87.293102 72.855444 87.293102 131.075169 0 17.137552-2.950077 28.500041-8.72514 33.764313-10.528545 9.496539-39.226647 6.546461-69.582214 3.460868-5.775063-0.573337-18.357195-1.730434-18.617803-1.605342-11.164427 0.198062-20.160599 9.308901-20.160599 20.483753 0 11.164427 8.923202 20.223145 19.962537 20.473328 0.062546 0.062546 9.882238 1.021582 14.573174 1.542797 16.178516 1.667888 31.512664 3.210685 45.637593 3.210685 22.016125 0 41.019627-3.784022 55.655346-17.075006 15.021419-13.541168 22.276733-34.535711 22.276733-64.255396 0-48.858702-19.066048-94.819448-53.601759-129.344735z m0 0" fill="#1890FF" p-id="5097"></path></svg>