<svg t="1720694837125" class="icon" viewBox="0 0 1024 1024" version="1.1" xmlns="http://www.w3.org/2000/svg" p-id="6377" width="200" height="200"><path d="M893.5 773.16c10.73-11.41 7.21-23 5.88-26.35a22.5 22.5 0 0 0-5.18-7.72V153.44c0-47.45-37.18-86-82.86-86H214.61c-45.68 0-82.86 38.6-82.86 86.05v683.16a21.22 21.22 0 0 0 1.57 8c1.55 58.93 48.09 106.41 105.2 106.41h635.81c15.84 0 22.36-7.91 25-14.53 1.33-3.3 4.85-14.94-5.89-26.35-34.33-36.47-34.33-100.51 0.06-137.02zM336 108.64h121.09v280.78L412 342.63a19.33 19.33 0 0 0-27.56-0.53L336 388.87z m508.57 801.2h-606c-36.18 0-65.62-30.57-65.62-68.15s29.44-68.15 65.62-68.15h606c-21.47 41.64-21.47 94.66-0.03 136.3z m9.93-177.56H238.52a102.52 102.52 0 0 0-67 25.09V153.44c0-24.7 19.35-44.8 43.13-44.8h81.64v327.54a20.68 20.68 0 0 0 11.92 18.91 19.29 19.29 0 0 0 21.45-3.8l67.86-65.43 65.43 67.94a19.45 19.45 0 0 0 14 6 19.16 19.16 0 0 0 7.6-1.57 20.64 20.64 0 0 0 12.26-19V108.64h314.53c23.78 0 43.13 20.1 43.13 44.8z" fill="#231815" p-id="6378"></path></svg>