<svg t="1724221830105" class="icon" viewBox="0 0 1024 1024" version="1.1" xmlns="http://www.w3.org/2000/svg" p-id="4633" width="200" height="200"><path d="M874.667 42.667H320A85.333 85.333 0 0 0 234.667 128v42.667h-85.334A85.333 85.333 0 0 0 64 256v640a85.333 85.333 0 0 0 85.333 85.333H704A85.333 85.333 0 0 0 789.333 896v-42.667h85.334A85.333 85.333 0 0 0 960 768V128a85.333 85.333 0 0 0-85.333-85.333zM725.333 896A21.333 21.333 0 0 1 704 917.333H149.333A21.333 21.333 0 0 1 128 896V256a21.333 21.333 0 0 1 21.333-21.333H704A21.333 21.333 0 0 1 725.333 256zM896 768a21.333 21.333 0 0 1-21.333 21.333h-85.334V256A85.333 85.333 0 0 0 704 170.667H298.667V128A21.333 21.333 0 0 1 320 106.667h554.667A21.333 21.333 0 0 1 896 128z" p-id="4634"></path><path d="M556.587 590.933a32 32 0 0 0 0-64h-91.734l115.84-132.48a32 32 0 0 0-48.213-42.666l-106.667 120.96-106.666-120.96a32 32 0 0 0-48.214 42.666l115.84 132.48H295.04a32 32 0 0 0 0 64h99.627v27.734h-97.92a32 32 0 0 0 0 64h97.92V800a32 32 0 0 0 64 0V682.667h97.92a32 32 0 0 0 0-64h-97.92v-27.734z" p-id="4635"></path></svg>