<svg t="1717653595136" class="icon" viewBox="0 0 1024 1024" version="1.1" xmlns="http://www.w3.org/2000/svg" p-id="10570" width="200" height="200"><path d="M542.55616 51.2a36.864 36.864 0 0 1 4.3008 73.48224l-4.3008 0.24576H198.656a73.728 73.728 0 0 0-73.5232 68.22912l-0.2048 5.49888v626.09408a73.728 73.728 0 0 0 68.22912 73.5232l5.49888 0.2048h617.74848a73.728 73.728 0 0 0 73.5232-68.22912l0.2048-5.49888V460.78976a36.864 36.864 0 0 1 73.472-4.3008l0.256 4.3008v363.96032c0 78.97088-62.08512 143.44192-140.10368 147.27168l-7.35232 0.18432H198.656c-78.97088 0-143.44192-62.07488-147.27168-140.09344L51.2 824.75008V198.656c0-78.97088 62.07488-143.44192 140.09344-147.27168L198.656 51.2h343.90016z" fill="#000000" p-id="10571"></path><path d="M354.03776 626.70848m36.864 0l258.048 0q36.864 0 36.864 36.864l0 0q0 36.864-36.864 36.864l-258.048 0q-36.864 0-36.864-36.864l0 0q0-36.864 36.864-36.864Z" fill="#000000" p-id="10572"></path><path d="M508.74368 438.29248L847.60576 99.4304a36.864 36.864 0 1 1 52.14208 52.1216L560.87552 490.4448a36.864 36.864 0 1 1-52.13184-52.14208z" fill="#000000" p-id="10573"></path></svg>