<svg t="1717742696075" class="icon" viewBox="0 0 1024 1024" version="1.1" xmlns="http://www.w3.org/2000/svg" p-id="6649" width="200" height="200"><path d="M859.299379 687.089737l1.956561 0.10847 0-84.657098 0 0L861.25594 146.857742c0-44.10859-39.678698-79.982636-88.48938-79.982636L226.391658 66.875107c-48.756447 0-88.48938 35.874045-88.48938 79.982636l0 442.040648-0.055259 0 0 233.045707c0 44.080961 39.732933 79.95603 88.543615 79.95603l354.447684 0c32.340569 33.917484 77.564563 55.224766 127.951137 55.224766 97.78407 0 177.35943-79.576383 177.35943-177.414689C886.150934 745.683227 876.040668 714.130603 859.299379 687.089737zM226.391658 846.294692c-17.828041 0-32.884968-11.142781-32.884968-24.350594L193.50669 602.541109l0.055259 0L193.561949 146.857742c0-13.207813 15.055904-24.350594 32.829709-24.350594l546.374902 0c17.828041 0 32.829709 11.142781 32.829709 24.350594l0 442.040648 0 0 0 42.614563c-27.938306-18.263969-61.09445-29.080316-96.80579-29.080316-97.785094 0-177.306218 79.547731-177.306218 177.277566 0 23.590278 4.838192 45.985334 13.208836 66.584488L226.391658 846.294692zM708.79048 901.465223c-67.074651 0-121.646548-54.57292-121.646548-121.755018 0-67.047022 54.571896-121.618918 121.646548-121.618918 67.127863 0 121.700783 54.571896 121.700783 121.618918C830.491263 846.892303 775.918343 901.465223 708.79048 901.465223z" fill="#040000" p-id="6650"></path><path d="M724.824665 769.763668l0-83.271542c0-7.692193-6.196119-13.915941-13.914918-13.915941s-13.914918 6.223748-13.914918 13.915941l0 97.18646c0 7.66354 6.196119 13.914918 13.914918 13.914918l78.32488 0c7.664563 0 13.915941-6.250354 13.915941-13.914918s-6.250354-13.914918-13.915941-13.914918L724.824665 769.763668z" fill="#040000" p-id="6651"></path><path d="M666.014234 513.589195c0-15.381315-12.501732-27.828812-27.829835-27.828812L526.865057 485.760382l0-55.659671 111.318318 0c15.328104 0 27.829835-12.501732 27.829835-27.829835 0-15.381315-12.501732-27.828812-27.829835-27.828812l-99.794867 0 86.859253-86.859253c10.870582-10.870582 10.870582-28.481681 0-39.352263-10.870582-10.871605-28.481681-10.871605-39.353286 0l-86.85823 86.85823-86.859253-86.85823c-10.871605-10.92584-28.481681-10.92584-39.353286 0-10.870582 10.870582-10.870582 28.426423 0 39.352263l86.859253 86.859253-99.794867 0c-15.328104 0-27.829835 12.447497-27.829835 27.828812 0 15.328104 12.501732 27.829835 27.829835 27.829835l111.318318 0 0 55.659671L359.887069 485.760382c-15.328104 0-27.829835 12.447497-27.829835 27.828812 0 15.328104 12.501732 27.829835 27.829835 27.829835l111.318318 0-0.325411 60.98598c0 15.328104 12.446473 27.829835 27.828812 27.829835 15.328104 0 27.829835-12.502755 27.829835-27.829835l0.325411-60.98598 111.318318 0C653.512503 541.41903 666.014234 528.917298 666.014234 513.589195z" fill="#040000" p-id="6652"></path></svg>