<svg t="1717656137540" class="icon" viewBox="0 0 1024 1024" version="1.1" xmlns="http://www.w3.org/2000/svg" p-id="25071" width="200" height="200"><path d="M840.679149 153.350244a435.574634 435.574634 0 0 1-274.731707-129.873171 76.675122 76.675122 0 0 0-107.894634-2.497561A502.009756 502.009756 0 0 1 180.074271 151.851707 76.924878 76.924878 0 0 0 112.390369 227.777561v458.552195a144.60878 144.60878 0 0 0 8.241951 49.95122C181.323052 902.868293 345.91232 1024 512.000125 1024s330.677073-121.131707 391.367805-288.218537a144.60878 144.60878 0 0 0 8.241951-49.951219V229.276098a76.924878 76.924878 0 0 0-70.930732-75.925854zM811.707442 686.329756a45.45561 45.45561 0 0 1-2.247805 15.235122C763.254759 828.440976 636.878174 924.097561 512.000125 924.097561S260.745491 828.440976 214.540613 701.564878a45.45561 45.45561 0 0 1-2.247805-15.235122V248.257561a606.907317 606.907317 0 0 0 299.707317-139.613659A541.47122 541.47122 0 0 0 811.707442 249.756098z" p-id="25072"></path><path d="M362.146466 399.609756a149.853659 149.853659 0 0 0 99.902439 141.112195V774.243902a49.95122 49.95122 0 0 0 99.902439 0v-74.926829h74.92683a49.95122 49.95122 0 0 0 0-99.902439h-74.92683v-58.692683A149.853659 149.853659 0 1 0 362.146466 399.609756z m149.853659-49.951219a49.95122 49.95122 0 1 1-49.95122 49.951219 49.95122 49.95122 0 0 1 49.95122-49.951219z" p-id="25073"></path></svg>