<svg t="1720679077184" class="icon" viewBox="0 0 1024 1024" version="1.1" xmlns="http://www.w3.org/2000/svg" p-id="7695" width="200" height="200"><path d="M597.504 149.333333a42.666667 42.666667 0 0 0-42.666667 42.666667v234.666667a42.666667 42.666667 0 0 0 42.666667 42.666666h234.666667a42.666667 42.666667 0 0 0 42.666666-42.666666V192a42.666667 42.666667 0 0 0-42.666666-42.666667h-234.666667z m21.333333 64h192v192h-192v-192zM481.706667 258.581333a10.666667 10.666667 0 0 0 0-15.082666L451.52 213.333333a10.666667 10.666667 0 0 0-15.082667 0l-151.36 151.36L197.717333 277.333333a10.666667 10.666667 0 0 0-15.082666 0l-30.186667 30.165334a10.666667 10.666667 0 0 0 0 15.082666l125.077333 125.077334a10.666667 10.666667 0 0 0 15.082667 0l189.098667-189.077334zM864.170667 618.666667a10.666667 10.666667 0 0 0 10.666666-10.666667v-42.666667a10.666667 10.666667 0 0 0-10.666666-10.666666h-298.666667a10.666667 10.666667 0 0 0-10.666667 10.666666v42.666667a10.666667 10.666667 0 0 0 10.666667 10.666667h298.666667zM864.170667 746.666667a10.666667 10.666667 0 0 0 10.666666-10.666667v-42.666667a10.666667 10.666667 0 0 0-10.666666-10.666666h-298.666667a10.666667 10.666667 0 0 0-10.666667 10.666666v42.666667a10.666667 10.666667 0 0 0 10.666667 10.666667h298.666667zM874.837333 864a10.666667 10.666667 0 0 1-10.666666 10.666667h-298.666667a10.666667 10.666667 0 0 1-10.666667-10.666667v-42.666667a10.666667 10.666667 0 0 1 10.666667-10.666666h298.666667a10.666667 10.666667 0 0 1 10.666666 10.666666v42.666667zM149.504 597.333333a42.666667 42.666667 0 0 1 42.666667-42.666666h234.666666a42.666667 42.666667 0 0 1 42.666667 42.666666v234.666667a42.666667 42.666667 0 0 1-42.666667 42.666667h-234.666666a42.666667 42.666667 0 0 1-42.666667-42.666667V597.333333z m64 213.333334h192v-192h-192v192z" p-id="7696"></path></svg>