<svg t="1729240965030" class="icon" viewBox="0 0 1032 1024" version="1.1" xmlns="http://www.w3.org/2000/svg" p-id="1077" width="200" height="200"><path d="M516.424121 1024c-69.648117 0-137.248154-13.520007-200.899277-40.198596-61.482568-25.768331-116.713806-62.647163-164.127534-109.632535-47.440501-46.998758-84.694145-101.761481-110.730199-162.735375C13.680641 648.2375 0 581.146136 0 511.993307S13.680641 375.749114 40.653725 312.566506c26.036054-60.987281 63.289698-115.736617 110.730199-162.735375 47.413729-46.971986 102.644966-83.864204 164.127534-109.632535C379.175968 13.520007 446.762618 0 516.424121 0s137.248154 13.520007 200.899277 40.198596c61.495954 25.768331 116.713806 62.647163 164.127535 109.632535 47.440501 46.998758 84.707531 101.761481 110.730198 162.735375 26.973084 63.182608 40.653725 130.273972 40.653725 199.426801s-13.680641 136.244193-40.653725 199.426801c-26.036054 60.987281-63.289698 115.736617-110.730198 162.735375-47.413729 46.971986-102.63158 83.864204-164.127535 109.632535-63.651124 26.678589-131.25116 40.198596-200.899277 40.198596z m0-943.683125C275.955397 80.316875 80.316875 273.974247 80.316875 511.993307s195.638522 431.676432 436.107246 431.676432 436.107246-193.657372 436.107246-431.676432S756.879459 80.316875 516.424121 80.316875z" p-id="1078"></path><path d="M668.182857 707.671987c-10.213629 0-20.427259-3.868596-28.258154-11.632561l-298.029152-295.298377c-15.755494-15.608246-15.875969-41.041923-0.267722-56.797417s41.041923-15.875969 56.797416-0.267723l298.029152 295.298378c15.755494 15.608246 15.875969 41.041923 0.267723 56.797416-7.857668 7.924598-18.191772 11.886898-28.525877 11.886898z" p-id="1079"></path><path d="M372.884479 707.671987c-9.557708 0-19.142189-3.386695-26.81245-10.267174-16.505118-14.818463-17.883891-40.198596-3.065427-56.703714l287.09267-319.902113c14.805077-16.505118 40.198596-17.883891 56.703714-3.065428 16.505118 14.818463 17.883891 40.198596 3.065427 56.703714L402.775743 694.339386c-7.924598 8.834856-18.887852 13.332601-29.90465 13.332601z" p-id="1080"></path></svg>