<svg t="1718852269131" class="icon" viewBox="0 0 1024 1024" version="1.1" xmlns="http://www.w3.org/2000/svg" p-id="4260" width="200" height="200"><path d="M585.576227 589.802994c0 77.710896 63.213717 140.924613 140.924613 140.924613s140.924613-63.213717 140.924614-140.924613-63.213717-140.924613-140.924614-140.924614-140.924613 63.213717-140.924613 140.924614z m140.924613-72.513524c39.977503 0 72.513524 32.534997 72.513524 72.513524s-32.534997 72.513524-72.513524 72.513523c-39.977503 0-72.513524-32.534997-72.513523-72.513523s32.536021-72.513524 72.513523-72.513524z" fill="" p-id="4261"></path><path d="M953.554066 872.13215c-8.604982-54.889121-33.951253-105.235786-71.377654-142.01955l-21.511943-21.084201-23.676235 18.753109c-31.599695 24.986067-71.003124 38.764885-110.954021 38.764886-39.9642 0-79.367629-13.754259-110.954021-38.740327l-23.662933-18.715247-21.525246 21.153786c-37.412075 36.758182-62.759369 86.970794-71.390957 141.886521l-6.213515 39.242769h467.467761l-6.201236-39.241746z m-376.943024-29.319769c5.945409-27.629267 13.789051-29.961382 23.195281-43.001373 38.093597 22.607904 81.893148 34.991955 126.226866 34.991956 44.320415 0 88.119967-12.470009 126.226867-35.091217 9.406231 13.06762 17.249873 15.471366 23.195281 43.100634H576.611042zM537.779641 569.589626V421.866167c67.538209-0.088004 137.123031-61.09445 137.123031-136.092562v-66.593697c0-75.052347-57.685817-141.79954-132.738164-141.79954h-66.593697c-75.052347 0-142.452409 66.748217-142.452409 141.79954v66.593697c0 74.998111 53.211922 136.004557 137.12303 136.092562v80.18525H305.464575c-75.052347 0-137.098471 67.49523-137.098471 142.546554v36.953633c-68.561515 15.232936-101.396341 68.369134-101.396341 131.588991 0 75.052347 61.298088 136.100748 136.350434 136.100747s135.801942-61.049424 135.801942-136.100747c0-63.219857-46.935985-116.356055-102.19452-131.588991v-36.953633c0-37.318954 31.218002-75.008344 68.536956-75.008345h232.315066zM271.258519 813.141618c0 37.318954-30.370705 67.689658-67.689659 67.689658s-67.689658-30.370705-67.689658-67.689658c0-37.332257 30.370705-67.702961 67.689658-67.702961s67.689658 30.370705 67.689659 67.702961z m336.105944-530.229177c0 37.384445-30.305213 67.689658-67.689659 67.689659h-70.305229c-37.384445 0-67.689658-30.305213-67.689658-67.689659v-70.305229c0-37.384445 30.305213-67.689658 67.689658-67.689658h70.305229c37.384445 0 67.689658 30.305213 67.689659 67.689658v70.305229z" fill="" p-id="4262"></path></svg>