<svg t="1720679441818" class="icon" viewBox="0 0 1024 1024" version="1.1" xmlns="http://www.w3.org/2000/svg" p-id="10772" width="200" height="200"><path d="M485.053 657.516c0 21.558-16.169 37.726-37.727 37.726H226.358c-21.558 0-37.726-16.168-37.726-37.726s16.168-37.727 37.726-37.727h220.968c21.558 0 37.727 16.169 37.727 37.727zM603.62 226.358c0 10.779 0 21.558-10.779 26.947l-43.116 48.506h10.78c21.557 0 37.726 16.168 37.726 37.726s-16.169 37.726-37.727 37.726H517.39V409.6h43.116c21.558 0 37.727 16.168 37.727 37.726s-16.169 37.727-37.727 37.727H517.39v32.336c0 21.558-16.168 37.727-37.726 37.727s-37.726-16.169-37.726-37.727v-32.336h-53.895c-21.558 0-37.726-16.169-37.726-37.727 0-21.558 16.168-37.726 37.726-37.726h53.895v-32.337h-53.895c-21.558 0-37.726-16.168-37.726-37.726s16.168-37.726 37.726-37.726h5.39l-48.506-48.506c-16.168-16.168-10.779-37.726 0-53.894 16.169-16.169 37.727-10.78 53.895 0l70.063 75.452 64.674-75.452c16.168-16.169 37.726-16.169 53.895-5.39 10.779 10.779 16.168 21.558 16.168 32.337z m-16.168 706.02c21.558 0 37.726 16.17 37.726 37.727 0 21.558-16.168 37.727-37.726 37.727H134.737c-59.284 0-107.79-48.506-107.79-107.79V134.737c0-59.284 48.506-107.79 107.79-107.79H813.81c59.284 0 107.789 48.506 107.789 107.79v409.6c0 21.558-16.168 37.726-37.726 37.726s-37.727-16.168-37.727-37.726v-409.6c0-21.558-10.779-32.337-26.947-32.337H134.737c-16.169 0-26.948 16.168-26.948 32.337v765.305c0 21.558 10.78 32.337 26.948 32.337h452.716zM226.358 759.917h167.074c21.557 0 37.726 16.168 37.726 37.726s-16.169 37.726-37.726 37.726H226.358c-21.558 0-37.726-16.168-37.726-37.726s21.557-37.726 37.726-37.726zM959.326 716.8c21.558 0 37.727 16.168 37.727 37.726s-16.169 37.727-37.727 37.727H668.295l48.505 48.505c5.39 5.39 10.779 16.168 10.779 26.947s-5.39 16.169-10.779 26.948c-5.39 5.39-16.168 10.779-26.947 10.779s-16.169-5.39-26.948-10.78L549.726 781.475c-16.168-16.169-16.168-37.727 0-53.895L662.906 614.4c5.389-5.39 16.168-10.779 26.947-10.779s16.168 5.39 26.947 10.779c16.168 16.168 16.168 37.726 0 48.505l-59.284 59.284h301.81z" fill="#666666" p-id="10773"></path></svg>