<svg t="1725529177977" class="icon" viewBox="0 0 1077 1024" version="1.1" xmlns="http://www.w3.org/2000/svg" p-id="4214" width="200" height="200"><path d="M463.565 0a89.6 89.6 0 0 1 58.995 22.157l2.816 2.585L817.024 302.67a89.6 89.6 0 0 1 27.712 61.005l0.077 3.852V537.6a38.4 38.4 0 0 1-76.736 2.253L768 537.6V396.8H531.2a89.6 89.6 0 0 1-89.549-86.528l-0.051-3.072V76.8h-352a12.8 12.8 0 0 0-12.71 11.302L76.8 89.6v793.6a12.8 12.8 0 0 0 11.302 12.71l1.498 0.09h183.808a38.4 38.4 0 0 1 2.266 76.736l-2.266 0.064H89.6A89.6 89.6 0 0 1 0.051 886.272L0 883.2V89.6A89.6 89.6 0 0 1 86.528 0.051L89.6 0h373.965z m260.313 320L518.4 124.173V307.2a12.8 12.8 0 0 0 11.302 12.71l1.498 0.09h192.678z" fill="#00021E" p-id="4215"></path><path d="M620.8 524.8a38.4 38.4 0 0 1 38.336 36.147l0.064 2.253v153.6h147.2a38.4 38.4 0 0 1 2.253 76.736l-2.253 0.064H659.2v140.8a38.4 38.4 0 0 1-76.736 2.253l-0.064-2.253V793.6H435.2a38.4 38.4 0 0 1-2.253-76.736l2.253-0.064h147.2V563.2a38.4 38.4 0 0 1 38.4-38.4z" fill="#00021E" p-id="4216"></path></svg>