<svg t="1717654589401" class="icon" viewBox="0 0 1024 1024" version="1.1" xmlns="http://www.w3.org/2000/svg" p-id="17749" width="200" height="200"><path d="M213.333 308.513c-23.564 0-42.666-19.103-42.666-42.667s19.102-42.667 42.666-42.667h597.334c23.564 0 42.666 19.103 42.666 42.667s-19.102 42.667-42.666 42.667H213.333z m0 262.564c-23.564 0-42.666-19.103-42.666-42.667s19.102-42.666 42.666-42.666h597.334c23.564 0 42.666 19.102 42.666 42.666 0 23.564-19.102 42.667-42.666 42.667H213.333z m0 262.564c-23.564 0-42.666-19.102-42.666-42.667 0-23.564 19.102-42.666 42.666-42.666h597.334c23.564 0 42.666 19.102 42.666 42.666 0 23.565-19.102 42.667-42.666 42.667H213.333z" p-id="17750"></path></svg>