<svg width="12" height="12" viewBox="0 0 12 12" fill="none" xmlns="http://www.w3.org/2000/svg">
<g id="Icon-Operate-1" clip-path="url(#clip0_8354_147321)">
<g id="Vector">
<mask id="path-1-inside-1_8354_147321" fill="white">
<path fill-rule="evenodd" clip-rule="evenodd" d="M0.296875 1.2C0.296875 0.813401 0.610276 0.5 0.996875 0.5H9.99687C10.3835 0.5 10.6969 0.813401 10.6969 1.2V2.7H9.29688V1.9H1.69687V9.5H5.19687V10.9H0.996875C0.610276 10.9 0.296875 10.5866 0.296875 10.2V1.2Z"/>
<path fill-rule="evenodd" clip-rule="evenodd" d="M2.79688 3.5H8.19687V4.9H2.79688V3.5Z"/>
<path fill-rule="evenodd" clip-rule="evenodd" d="M2.79688 6H6.69688V7.4H2.79688V6Z"/>
<path d="M5.89727 10.6342L6.28163 12.0647L7.71272 11.6823L10.889 6.11186L9.13329 5.09822L5.89727 10.6342ZM11.927 4.31404L10.1713 3.30039L9.4427 4.56771L11.1984 5.58136L11.927 4.31404Z"/>
</mask>
<path fill-rule="evenodd" clip-rule="evenodd" d="M0.296875 1.2C0.296875 0.813401 0.610276 0.5 0.996875 0.5H9.99687C10.3835 0.5 10.6969 0.813401 10.6969 1.2V2.7H9.29688V1.9H1.69687V9.5H5.19687V10.9H0.996875C0.610276 10.9 0.296875 10.5866 0.296875 10.2V1.2Z" fill="#42A4F4"/>
<path fill-rule="evenodd" clip-rule="evenodd" d="M2.79688 3.5H8.19687V4.9H2.79688V3.5Z" fill="#42A4F4"/>
<path fill-rule="evenodd" clip-rule="evenodd" d="M2.79688 6H6.69688V7.4H2.79688V6Z" fill="#42A4F4"/>
<path d="M5.89727 10.6342L6.28163 12.0647L7.71272 11.6823L10.889 6.11186L9.13329 5.09822L5.89727 10.6342ZM11.927 4.31404L10.1713 3.30039L9.4427 4.56771L11.1984 5.58136L11.927 4.31404Z" fill="#42A4F4"/>
<path d="M10.6969 2.7V2.8C10.7521 2.8 10.7969 2.75523 10.7969 2.7H10.6969ZM9.29688 2.7H9.19687C9.19687 2.75523 9.24165 2.8 9.29688 2.8V2.7ZM9.29688 1.9H9.39688C9.39688 1.84477 9.3521 1.8 9.29688 1.8V1.9ZM1.69687 1.9V1.8C1.64165 1.8 1.59687 1.84477 1.59687 1.9H1.69687ZM1.69687 9.5H1.59687C1.59687 9.55523 1.64165 9.6 1.69687 9.6V9.5ZM5.19687 9.5H5.29687C5.29687 9.44477 5.2521 9.4 5.19687 9.4V9.5ZM5.19687 10.9V11C5.2521 11 5.29687 10.9552 5.29687 10.9H5.19687ZM2.79688 3.5V3.4H2.69688V3.5H2.79688ZM8.19687 3.5H8.29687V3.4H8.19687V3.5ZM8.19687 4.9V5H8.29687V4.9H8.19687ZM2.79688 4.9H2.69688V5H2.79688V4.9ZM2.79688 6V5.9H2.69688V6H2.79688ZM6.69688 6H6.79688V5.9H6.69688V6ZM6.69688 7.4V7.5H6.79688V7.4H6.69688ZM2.79688 7.4H2.69688V7.5H2.79688V7.4ZM5.89727 10.6342L5.81093 10.5837L5.78985 10.6198L5.80069 10.6601L5.89727 10.6342ZM6.28163 12.0647L6.18506 12.0907L6.21097 12.1871L6.30745 12.1613L6.28163 12.0647ZM7.71272 11.6823L7.73854 11.7789L7.7789 11.7681L7.79959 11.7318L7.71272 11.6823ZM10.889 6.11186L10.9758 6.1614L11.0251 6.07499L10.939 6.02526L10.889 6.11186ZM9.13329 5.09822L9.18329 5.01161L9.09715 4.96188L9.04696 5.04775L9.13329 5.09822ZM11.927 4.31404L12.0136 4.36388L12.0634 4.27734L11.977 4.22744L11.927 4.31404ZM10.1713 3.30039L10.2213 3.21379L10.1345 3.1637L10.0846 3.25055L10.1713 3.30039ZM9.4427 4.56771L9.356 4.51787L9.30626 4.60441L9.3927 4.65431L9.4427 4.56771ZM11.1984 5.58136L11.1484 5.66796L11.2352 5.71805L11.2851 5.6312L11.1984 5.58136ZM0.996875 0.4C0.555047 0.4 0.196875 0.758172 0.196875 1.2H0.396875C0.396875 0.868629 0.665504 0.6 0.996875 0.6V0.4ZM9.99687 0.4H0.996875V0.6H9.99687V0.4ZM10.7969 1.2C10.7969 0.758172 10.4387 0.4 9.99687 0.4V0.6C10.3282 0.6 10.5969 0.868629 10.5969 1.2H10.7969ZM10.7969 2.7V1.2H10.5969V2.7H10.7969ZM9.29688 2.8H10.6969V2.6H9.29688V2.8ZM9.19687 1.9V2.7H9.39688V1.9H9.19687ZM1.69687 2H9.29688V1.8H1.69687V2ZM1.79688 9.5V1.9H1.59687V9.5H1.79688ZM5.19687 9.4H1.69687V9.6H5.19687V9.4ZM5.29687 10.9V9.5H5.09687V10.9H5.29687ZM0.996875 11H5.19687V10.8H0.996875V11ZM0.196875 10.2C0.196875 10.6418 0.555047 11 0.996875 11V10.8C0.665504 10.8 0.396875 10.5314 0.396875 10.2H0.196875ZM0.196875 1.2V10.2H0.396875V1.2H0.196875ZM8.29687 4.9V3.5H8.09687V4.9H8.29687ZM2.69688 3.5V4.9H2.89687V3.5H2.69688ZM8.19687 3.4H2.79688V3.6H8.19687V3.4ZM2.79688 5H8.19687V4.8H2.79688V5ZM6.79688 7.4V6H6.59688V7.4H6.79688ZM2.69688 6V7.4H2.89687V6H2.69688ZM6.69688 5.9H2.79688V6.1H6.69688V5.9ZM2.79688 7.5H6.69688V7.3H2.79688V7.5ZM5.80069 10.6601L6.18506 12.0907L6.37821 12.0388L5.99384 10.6082L5.80069 10.6601ZM6.30745 12.1613L7.73854 11.7789L7.68691 11.5857L6.25582 11.9681L6.30745 12.1613ZM7.79959 11.7318L10.9758 6.1614L10.8021 6.06233L7.62585 11.6328L7.79959 11.7318ZM10.939 6.02526L9.18329 5.01161L9.08329 5.18482L10.839 6.19846L10.939 6.02526ZM9.04696 5.04775L5.81093 10.5837L5.9836 10.6846L9.21962 5.14868L9.04696 5.04775ZM11.977 4.22744L10.2213 3.21379L10.1213 3.38699L11.877 4.40064L11.977 4.22744ZM10.0846 3.25055L9.356 4.51787L9.52939 4.61755L10.258 3.35023L10.0846 3.25055ZM9.3927 4.65431L11.1484 5.66796L11.2484 5.49475L9.4927 4.48111L9.3927 4.65431ZM11.2851 5.6312L12.0136 4.36388L11.8403 4.2642L11.1117 5.53152L11.2851 5.6312Z" fill="#525252" mask="url(#path-1-inside-1_8354_147321)"/>
</g>
</g>
<defs>
<clipPath id="clip0_8354_147321">
<rect width="12" height="12" fill="white"/>
</clipPath>
</defs>
</svg>
