<!-- <svg xmlns="http://www.w3.org/2000/svg" width="20" height="20" viewBox="0 0 20 20">
  <defs>
    <style>
      .cls-1 {
        fill: none;
      }

      .cls-2 {
        fill: #18c184;
      }

      .cls-3 {
        fill: #fff;
        font-size: 8px;
        font-family: PingFang SC Bold, PingFang SC;
      }
    </style>
  </defs>
  <g id="组_3426" data-name="组 3426" transform="translate(-205 -376)">
    <rect id="矩形_2585" data-name="矩形 2585" class="cls-1" width="20" height="20" transform="translate(205 376)"/>
    <path id="路径_2668" data-name="路径 2668" class="cls-2" d="M-217.277,452.651l-5.25-1.507a1.723,1.723,0,0,0-.947,0l-5.25,1.507A1.78,1.78,0,0,0-230,454.37v4.673c0,4.438,3.134,8.035,7,8.035h0c3.866,0,7-3.6,7-8.035V454.37A1.78,1.78,0,0,0-217.277,452.651Z" transform="translate(438 -73.078)"/>
    <text id="内" class="cls-3" transform="translate(211 388)"><tspan x="0" y="0">内</tspan></text>
  </g>
</svg> -->
<svg xmlns="http://www.w3.org/2000/svg" width="13" height="13" viewBox="0 0 13 13" fill="none">
  <path d="M11.0027 1.57509L6.86726 0.420665C6.62327 0.353268 6.36556 0.353268 6.12157 0.420665L1.98611 1.57509C1.69782 1.65443 1.44343 1.82598 1.26183 2.06353C1.08024 2.30108 0.981413 2.59155 0.980469 2.89056L0.980469 6.47025C0.980469 9.86877 3.44949 12.6231 6.49442 12.6231C9.53934 12.6231 12.0084 9.86877 12.0084 6.47025V2.89056C12.0068 2.59201 11.9078 2.30213 11.7262 2.06511C11.5447 1.8281 11.2906 1.65694 11.0027 1.57772V1.57509Z" fill="#42BF39"/>
  <path fill-rule="evenodd" clip-rule="evenodd" d="M6.89577 2.4707H6.09135V3.87888H3.07031V10.5207H3.86654V8.09889C3.94925 8.1958 4.08055 8.36791 4.2619 8.61835L4.29692 8.6667L4.34877 8.63711C5.36446 8.05747 6.0702 7.37655 6.4581 6.59191C7.20435 7.25741 7.86017 7.89937 8.42574 8.51779L8.47421 8.57079L9.06708 7.93904L9.02108 7.89346C8.43078 7.30857 7.65942 6.63361 6.70759 5.86872C6.79691 5.50292 6.85301 5.09128 6.87631 4.63418H9.10421V9.20973C9.10421 9.37756 9.06349 9.48897 8.99475 9.55771C8.92641 9.62604 8.81735 9.66411 8.65601 9.65899C8.31422 9.65356 7.88467 9.62912 7.36698 9.58553L7.27643 9.5779L7.2965 9.66652C7.36167 9.95437 7.40192 10.1886 7.41792 10.37L7.42317 10.4294L7.48281 10.4306C8.00693 10.4416 8.44944 10.447 8.81024 10.447C9.16173 10.4498 9.43772 10.3626 9.62529 10.1735C9.8127 9.98463 9.90043 9.70544 9.90043 9.34891V3.87888H6.89577V2.4707ZM9.82986 3.94542V4.01196H9.8339V3.94542H9.82986ZM3.79597 10.3876V10.4542H3.8V10.3876H3.79597ZM6.82519 2.53724V2.60378H6.82923V2.53724H6.82519ZM3.86654 4.63418V7.90961C4.72833 7.44894 5.3114 6.94237 5.62527 6.3931L5.62657 6.39091C5.87259 5.99626 6.0228 5.413 6.07104 4.63418H3.86654Z" fill="black"/>
</svg>