<!-- <svg xmlns="http://www.w3.org/2000/svg" width="86" height="82" viewBox="0 0 86 82">
  <g id="组_5146" data-name="组 5146" transform="translate(-496 -8147)">
    <path id="多边形_3" data-name="多边形 3" d="M48.537,3.109A10,10,0,0,1,60.729,7.072l1.055,1.679a10,10,0,0,0,6.011,4.375l1.922.487a10,10,0,0,1,7.52,10.355L77.1,25.993a10,10,0,0,0,2.288,7.054l1.3,1.56a10,10,0,0,1,0,12.785l-1.3,1.56A10,10,0,0,0,77.1,56.007l.134,2.024a10,10,0,0,1-7.52,10.355l-1.922.487a10,10,0,0,0-6.011,4.375l-1.055,1.679a10,10,0,0,1-12.192,3.963l-1.814-.728a10,10,0,0,0-7.446,0l-1.814.728a10,10,0,0,1-12.192-3.963l-1.055-1.679a10,10,0,0,0-6.011-4.375l-1.922-.487a10,10,0,0,1-7.52-10.355L8.9,56.007A10,10,0,0,0,6.61,48.952l-1.3-1.56a10,10,0,0,1,0-12.785l1.3-1.56A10,10,0,0,0,8.9,25.993l-.134-2.024a10,10,0,0,1,7.52-10.355l1.922-.487a10,10,0,0,0,6.011-4.375l1.055-1.679A10,10,0,0,1,37.463,3.109l1.814.728a10,10,0,0,0,7.446,0Z" transform="translate(496 8147)" fill="#409eff"/>
    <text id="新" transform="translate(518 8204)" fill="#fff" font-size="42" font-family="PingFang SC Heavy, PingFang SC"><tspan x="0" y="0">新</tspan></text>
  </g>
</svg> -->
<svg xmlns="http://www.w3.org/2000/svg" width="13" height="13" viewBox="0 0 13 13" fill="none">
  <circle cx="6.5" cy="6.5" r="6.5" fill="#42A4F4"/>
  <path d="M10.5073 3.26853C9.74525 3.52053 8.89925 3.67353 7.96925 3.72753V5.12253H10.6963V6.01353H9.86825V10.7025H8.94125V6.01353H7.96925V6.86853C7.92725 8.45853 7.57625 9.73053 6.91625 10.6845L6.24125 9.97353C6.75125 9.21753 7.02425 8.18253 7.06025 6.86853V2.96253C8.17025 2.94453 9.16625 2.76453 10.0482 2.42253L10.5073 3.26853ZM2.53325 3.05253H4.09025C3.98225 2.82453 3.86525 2.61753 3.73925 2.43153L4.71125 2.26953C4.78925 2.43153 4.89425 2.69253 5.02625 3.05253H6.66425V3.91653H2.53325V3.05253ZM2.44325 5.09553H3.36125C3.25325 4.78953 3.12725 4.51353 2.98325 4.26753L3.81125 3.95253C3.93725 4.25853 4.06625 4.63953 4.19825 5.09553H4.99025C5.12825 4.71753 5.24525 4.33653 5.34125 3.95253L6.17825 4.24953C6.06425 4.57353 5.95325 4.85553 5.84525 5.09553H6.71825V5.95053H5.08925V6.67953H6.56525V7.53453H5.08925V9.88353C5.08925 10.4475 4.77725 10.7295 4.15325 10.7295H3.68525L3.47825 9.86553C3.63425 9.90753 3.75725 9.92853 3.84725 9.92853C4.05125 9.92853 4.15325 9.84153 4.15325 9.66753V7.53453H2.58725V6.67953H4.15325V5.95053H2.44325V5.09553ZM3.93725 8.06553C3.72725 8.98953 3.43625 9.78453 3.06425 10.4505L2.28125 9.95553C2.66525 9.30753 2.93525 8.61753 3.09125 7.88553L3.93725 8.06553ZM6.00725 7.83153C6.24125 8.43753 6.41525 8.95053 6.52925 9.37053L5.73725 9.67653C5.60525 9.13053 5.43725 8.58453 5.23325 8.03853L6.00725 7.83153Z" fill="black"/>
</svg>