<svg width="12" height="12" viewBox="0 0 12 12" fill="none" xmlns="http://www.w3.org/2000/svg">
<g id="Icon-WMS-LeftBar">
<g id="Vector">
<path fill-rule="evenodd" clip-rule="evenodd" d="M0.484375 1.00061C0.484375 0.716582 0.714629 0.486328 0.998661 0.486328H4.99866C5.28269 0.486328 5.51295 0.716582 5.51295 1.00061V5.00061C5.51295 5.28465 5.28269 5.5149 4.99866 5.5149H0.998661C0.714629 5.5149 0.484375 5.28465 0.484375 5.00061V1.00061ZM1.51295 1.5149V4.48633H4.48438V1.5149H1.51295Z" fill="#9BA1A9"/>
<path d="M2.24866 3.75061H3.74866V2.25061H2.24866V3.75061Z" fill="#9BA1A9"/>
<path d="M8.24866 3.75061H9.74866V2.25061H8.24866V3.75061Z" fill="#9BA1A9"/>
<path fill-rule="evenodd" clip-rule="evenodd" d="M0.484375 7.00061C0.484375 6.71658 0.714629 6.48633 0.998661 6.48633H4.99866C5.28269 6.48633 5.51295 6.71658 5.51295 7.00061V11.0006C5.51295 11.2846 5.28269 11.5149 4.99866 11.5149H0.998661C0.714629 11.5149 0.484375 11.2846 0.484375 11.0006V7.00061ZM1.51295 7.5149V10.4863H4.48438V7.5149H1.51295Z" fill="#9BA1A9"/>
<path d="M2.24866 9.75061H3.74866V8.25061H2.24866V9.75061Z" fill="#9BA1A9"/>
<path fill-rule="evenodd" clip-rule="evenodd" d="M6.48438 7.00061C6.48438 6.71658 6.71463 6.48633 6.99866 6.48633H10.9987C11.2827 6.48633 11.5129 6.71658 11.5129 7.00061V11.0006C11.5129 11.2846 11.2827 11.5149 10.9987 11.5149H6.99866C6.71463 11.5149 6.48438 11.2846 6.48438 11.0006V7.00061ZM7.51295 7.5149V10.4863H10.4844V7.5149H7.51295Z" fill="#9BA1A9"/>
<path d="M8.24866 9.75061H9.74866V8.25061H8.24866V9.75061Z" fill="#9BA1A9"/>
</g>
<path id="Rectangle 12164 (Stroke)" fill-rule="evenodd" clip-rule="evenodd" d="M6.48438 1.00061C6.48438 0.716582 6.71463 0.486328 6.99866 0.486328H10.9987C11.2827 0.486328 11.5129 0.716582 11.5129 1.00061V5.00061C11.5129 5.28465 11.2827 5.5149 10.9987 5.5149H6.99866C6.71463 5.5149 6.48438 5.28465 6.48438 5.00061V1.00061ZM7.51295 1.5149V4.48633H10.4844V1.5149H7.51295Z" fill="#F8B500"/>
</g>
</svg>
