<!-- <svg xmlns="http://www.w3.org/2000/svg" width="86" height="82" viewBox="0 0 86 82">
  <g id="组_5147" data-name="组 5147" transform="translate(-496 -8147)">
    <path id="多边形_3" data-name="多边形 3" d="M48.537,3.109A10,10,0,0,1,60.729,7.072l1.055,1.679a10,10,0,0,0,6.011,4.375l1.922.487a10,10,0,0,1,7.52,10.355L77.1,25.993a10,10,0,0,0,2.288,7.054l1.3,1.56a10,10,0,0,1,0,12.785l-1.3,1.56A10,10,0,0,0,77.1,56.007l.134,2.024a10,10,0,0,1-7.52,10.355l-1.922.487a10,10,0,0,0-6.011,4.375l-1.055,1.679a10,10,0,0,1-12.192,3.963l-1.814-.728a10,10,0,0,0-7.446,0l-1.814.728a10,10,0,0,1-12.192-3.963l-1.055-1.679a10,10,0,0,0-6.011-4.375l-1.922-.487a10,10,0,0,1-7.52-10.355L8.9,56.007A10,10,0,0,0,6.61,48.952l-1.3-1.56a10,10,0,0,1,0-12.785l1.3-1.56A10,10,0,0,0,8.9,25.993l-.134-2.024a10,10,0,0,1,7.52-10.355l1.922-.487a10,10,0,0,0,6.011-4.375l1.055-1.679A10,10,0,0,1,37.463,3.109l1.814.728a10,10,0,0,0,7.446,0Z" transform="translate(496 8147)" fill="#409eff"/>
    <text id="替" transform="translate(518 8204)" fill="#fff" font-size="42" font-family="PingFang SC Heavy, PingFang SC"><tspan x="0" y="0">替</tspan></text>
  </g>
</svg> -->
<svg xmlns="http://www.w3.org/2000/svg" width="13" height="13" viewBox="0 0 13 13" fill="none">
  <circle cx="6.5" cy="6.5" r="6.5" fill="#42A4F4"/>
  <path d="M2.79822 3.08309H4.12195V2.55005H4.95705V3.08309H6.28966V3.87378H4.93928L4.88598 4.42459H6.36962V5.24192H4.74383C5.27688 5.54398 5.81881 5.89046 6.36962 6.28136L5.9876 6.85882H9.47904V10.75H8.54622V10.4125H4.54838V10.75H3.61556V6.92101C3.38457 7.08685 3.13582 7.22899 2.86929 7.34745L2.39844 6.61895C3.0677 6.2932 3.51487 5.89934 3.73993 5.43737L3.81989 5.24192H2.47839V4.42459H4.03311C4.06864 4.19952 4.09233 4.01592 4.10418 3.87378H2.79822V3.08309ZM4.42401 6.00595C4.23448 6.34947 3.99165 6.63376 3.69551 6.85882H5.69443C5.25022 6.47977 4.84156 6.1629 4.46843 5.90823L4.42401 6.00595ZM6.7161 3.08309H8.03094V2.55005H8.86604V3.08309H10.2875V3.87378H8.85716C8.83347 4.12253 8.81274 4.30613 8.79497 4.42459H10.5362V5.24192H8.92823C9.27767 5.71574 9.85514 6.14514 10.6606 6.53011L10.1009 7.22307C9.34282 6.75518 8.75943 6.24878 8.35077 5.70389L8.333 5.73943C8.00725 6.21917 7.49493 6.58046 6.79605 6.82329L6.33408 6.09479C6.96781 5.86381 7.40017 5.57952 7.63116 5.24192H6.62726V4.42459H7.9421C7.97764 4.24098 8.00429 4.05738 8.02206 3.87378H6.7161V3.08309ZM4.54838 9.59512H8.54622V9.01765H4.54838V9.59512ZM4.54838 8.24474H8.54622V7.65839H4.54838V8.24474Z" fill="black"/>
</svg>
