<svg t="1716537457178" class="icon" viewBox="0 0 1024 1024" version="1.1" xmlns="http://www.w3.org/2000/svg" p-id="2601" width="200" height="200"><path d="M640.914286 614.217143a39.68 39.68 0 0 1 15.542857-32 265.874286 265.874286 0 0 0 106.422857-214.674286v-124.342857C762.88 109.714286 658.285714 0 530.285714 0h-36.571428c-128 0-232.594286 109.714286-232.594286 243.2v124.342857a265.874286 265.874286 0 0 0 106.422857 214.674286 39.68 39.68 0 0 1 16.457143 32 39.314286 39.314286 0 0 1-30.72 39.131428c-144.457143 29.44-245.76 97.828571-245.76 177.554286C106.605714 937.508571 288.182857 1024 512 1024s405.394286-86.491429 405.394286-193.097143c0-79.725714-101.302857-148.114286-245.76-177.554286a39.314286 39.314286 0 0 1-30.72-39.131428z" fill="#333333" p-id="2602"></path></svg>