<?xml version="1.0" standalone="no"?><!DOCTYPE svg PUBLIC "-//W3C//DTD SVG 1.1//EN" "http://www.w3.org/Graphics/SVG/1.1/DTD/svg11.dtd"><svg t="1691681195506" class="icon" viewBox="0 0 1024 1024" version="1.1" xmlns="http://www.w3.org/2000/svg" p-id="5863" xmlns:xlink="http://www.w3.org/1999/xlink" width="200" height="200"><path d="M347.13599999 783.36000001q19.45600001 0 36.86400002 7.16799999t30.72 19.968 20.48 30.20799999 7.16799999 36.864-7.16799999 36.864-20.48 30.20800001-30.72 20.48-36.864 7.68q-20.48 0-37.37600001-7.68t-30.20799999-20.48-20.48-30.20800001-7.16800001-36.864 7.16800001-36.864 20.48-30.20799999 30.20799999-19.968 37.37600001-7.16800001zM773.12000001 785.40800001q19.45600001 0 37.37599999 7.16799999t30.72 19.968 20.48 30.20799999 7.67999999 36.864-7.67999999 36.864-20.48 30.20800001-30.72 20.48-37.37600001 7.68-36.864-7.68-30.20799999-20.48-20.48-30.20800001-7.68-36.864 7.68-36.864 20.48-30.20799999 30.20799999-19.968 36.864-7.16800001zM945.15200001 203.77599999q28.672 0 44.54399999 7.68000001t22.528 18.94400001 6.144 24.06399999-3.58400001 22.016-12.79999999 37.88800001-22.01600001 62.97599999-24.06399999 68.09600001-17.92 53.248q-13.31200001 40.96-33.79200001 56.83199999t-50.17599999 15.872l-34.816 0-66.56000001 0-87.03999999 0-95.23200001 0-253.95199998 0 15.35999999 92.16 516.096 0q49.152 0 49.152 41.98400001 0 20.48-9.728 35.32799999t-38.39999999 14.848l-49.152 0-95.23200001 0-117.76000001 0-119.80799999 0-98.304 0-56.32000001 0q-20.48 0-34.30399999-9.21599999t-23.04000001-24.06400001-14.84799999-32.256-8.704-32.768q-1.02400001-6.144-5.632-29.69600001t-11.264-58.87999999-14.84800001-78.848-16.384-87.55199999q-19.45600001-103.42400001-44.03199999-230.40000001l-76.80000001 0q-15.36000001 0-25.59999999-7.68t-16.896-18.432-9.216-23.04-2.56-22.528q0-20.48 13.824-33.79199999t37.376-13.31200001l22.528 0 20.48 0 25.59999999 0 34.816 0q20.48 0 32.768 6.144t19.45600001 15.36000001 10.24 19.45599999 5.11999999 17.40800001q2.048 8.192 4.096 23.03999999t4.096 30.20800001q3.07200001 18.432 6.144 38.912l700.416 0z" fill="#707070" p-id="5864"></path></svg>