<?xml version="1.0" standalone="no"?><!DOCTYPE svg PUBLIC "-//W3C//DTD SVG 1.1//EN" "http://www.w3.org/Graphics/SVG/1.1/DTD/svg11.dtd"><svg t="1694053021268" class="icon" viewBox="0 0 1024 1024" version="1.1" xmlns="http://www.w3.org/2000/svg" p-id="1377" xmlns:xlink="http://www.w3.org/1999/xlink" width="200" height="200"><path d="M467 692h90v90H467zM512 242c-99.4921875 0-180 80.5078125-180 180h90c0-49.48242188 40.51757813-90 90-90s90 40.51757813 90 90c0 90-135 78.75-135 225h90c0-101.25 135-112.5 135-225 0-99.4921875-80.5078125-180-180-180z" fill="#000000" p-id="1378"></path><path d="M512 62C263.62109375 62 62 263.62109375 62 512s201.62109375 450 450 450 450-201.62109375 450-450S760.37890625 62 512 62z m0 810c-198.45703125 0-360-161.54296875-360-360S313.54296875 152 512 152 872 313.54296875 872 512 710.45703125 872 512 872z" fill="#000000" p-id="1379"></path></svg>