<svg width="209" height="40" viewBox="0 0 209 40" fill="none" xmlns="http://www.w3.org/2000/svg">
<g id="Icon-Logo">
<path id="Vector" d="M20.5874 39.9662H18.2128C17.5774 39.9662 17.2095 39.6318 17.2095 38.9629V22.3073C17.2095 17.391 15.671 15.7522 11.758 15.7522C9.88507 15.7522 7.64426 16.3876 5.03557 17.692V38.9963C5.03557 39.6318 4.70112 39.9997 4.03222 39.9997H1.59075C0.9553 39.9997 0.654297 39.6652 0.654297 38.9963V12.9428C0.654297 12.3073 0.9553 11.9395 1.59075 11.9395H4.06567C4.70112 11.9395 5.00212 12.2739 5.00212 12.9428V14.2471C7.7446 12.7087 10.3533 11.9729 12.8951 11.9729C18.6476 11.9729 21.5239 15.3843 21.5239 22.3073V38.9963C21.5573 39.6318 21.2229 39.9662 20.5874 39.9662Z" fill="#F8B500"/>
<path id="Vector_2" d="M46.8415 27.3575H30.2194V28.0599C30.2194 33.8124 32.3933 36.1535 37.109 36.1535C40.6207 36.1535 43.5639 35.9528 45.9385 35.6184H46.1726C46.7077 35.6184 46.9753 35.8525 46.9753 36.3207V38.0264C46.9753 38.6619 46.6408 39.0298 45.9719 39.1635C43.0288 39.6986 40.0522 39.9997 37.0756 39.9997C33.798 39.9997 31.2227 39.1635 29.2829 37.5247C26.9418 35.4846 25.8047 32.3408 25.8047 28.0933V23.5782C25.8047 16.3876 29.8181 11.9395 36.8415 11.9395C40.3532 11.9395 43.0957 12.9762 45.0355 15.1167C46.8749 17.1568 47.7779 19.9328 47.7779 23.5782V26.2538C47.8114 27.0231 47.5104 27.3575 46.8415 27.3575ZM43.3967 23.5782C43.3967 18.0599 41.3231 15.7856 36.8749 15.7856C32.4602 15.7856 30.2194 18.3609 30.2194 23.5782V24.013H43.3967V23.5782Z" fill="#F8B500"/>
<path id="Vector_3" d="M85.807 13.1776L81.0244 36.5221C80.69 38.094 80.2886 39.0305 79.8538 39.4318C79.4191 39.7997 78.4157 40.0004 76.9107 40.0004C74.2017 40.0004 73.5997 39.3984 72.8639 36.3884L68.5829 19.298C68.5495 19.0305 68.4492 18.9302 68.3488 18.9302C68.2485 18.9302 68.1481 19.0305 68.1147 19.298L63.8338 36.3884C63.098 39.3649 62.3622 40.0004 59.7869 40.0004C58.2485 40.0004 57.2786 39.7997 56.8438 39.4318C56.409 39.0305 56.0077 38.0606 55.6732 36.5221L50.8906 12.977C50.8906 12.3081 51.1916 11.9736 51.8271 11.9736H54.4692C54.904 11.9736 55.205 12.2412 55.3053 12.7763L59.3856 35.7195C59.4191 36.1208 59.5863 36.3215 59.7869 36.3215C59.9207 36.3215 60.088 36.1208 60.1883 35.7195L64.9709 16.3883C65.205 15.385 65.9073 14.8833 66.9441 14.8833H69.6866C70.7234 14.8833 71.3923 15.385 71.6599 16.3883L76.4759 35.7195C76.5762 36.1208 76.71 36.3215 76.8772 36.3215C77.0779 36.3215 77.2117 36.1208 77.2786 35.7195L81.3589 12.7763C81.4592 12.2077 81.7602 11.9736 82.195 11.9736H84.8371C85.4726 11.9736 85.7736 12.3415 85.7736 12.977V13.1776H85.807Z" fill="#F8B500"/>
<path id="Vector_4" d="M107.677 39.9662H105.402C104.767 39.9662 104.399 39.6318 104.399 38.9629V37.5247C101.623 39.1635 99.0813 39.9662 96.7401 39.9662C91.3221 39.9662 88.6465 37.2906 88.6465 31.906V31.304C88.6465 25.7856 92.0244 23.2438 100.62 23.2438H104.299V21.2706C104.299 17.09 102.894 15.6518 98.9809 15.6518C96.5395 15.6518 93.9976 15.7856 91.389 16.0532H91.1548C90.5528 16.0532 90.2518 15.8191 90.2518 15.2505V13.5114C90.2518 12.9762 90.5863 12.6752 91.2886 12.5749C93.9308 12.1401 96.4391 11.9395 98.9809 11.9395C105.436 11.9395 108.68 15.0833 108.68 21.2706V38.9629C108.68 39.6318 108.312 39.9662 107.677 39.9662ZM104.299 26.4211H100.62C97.6766 26.4211 95.6364 26.7555 94.5997 27.5247C93.5629 28.2271 92.9943 29.4645 92.9943 31.304V31.906C92.9943 33.6117 93.3956 34.7823 94.1983 35.4846C94.9007 36.1201 96.0378 36.4211 97.5762 36.4211C99.6164 36.4211 101.857 35.7856 104.299 34.4478V26.4211Z" fill="#F8B500"/>
<path id="Vector_5" d="M125.069 15.7522C122.829 15.7522 120.554 16.4545 118.213 17.8257V38.9963C118.213 39.6318 117.879 39.9997 117.21 39.9997H114.768C114.133 39.9997 113.832 39.6652 113.832 38.9963V12.9428C113.832 12.3073 114.133 11.9395 114.768 11.9395H117.11C117.745 11.9395 118.046 12.2739 118.046 12.9428V14.3475C120.32 12.7421 122.661 11.9729 125.036 11.9729C125.738 11.9729 126.073 12.2739 126.073 12.8759V14.916C126.106 15.4512 125.772 15.7522 125.069 15.7522Z" fill="#F8B500"/>
<path id="Vector_6" d="M149.351 27.3575H132.696V28.0599C132.696 33.8124 134.87 36.1535 139.586 36.1535C143.097 36.1535 146.04 35.9528 148.415 35.6184H148.649C149.184 35.6184 149.452 35.8525 149.452 36.3207V38.0264C149.452 38.6619 149.117 39.0298 148.448 39.1635C145.505 39.6986 142.529 39.9997 139.552 39.9997C136.275 39.9997 133.699 39.1635 131.76 37.5247C129.418 35.4846 128.281 32.3408 128.281 28.0933V23.5782C128.281 16.3876 132.295 11.9395 139.318 11.9395C142.83 11.9395 145.572 12.9762 147.512 15.1167C149.351 17.1568 150.254 19.9328 150.254 23.5782V26.2538C150.288 27.0231 149.987 27.3575 149.351 27.3575ZM145.873 23.5782C145.873 18.0599 143.8 15.7856 139.351 15.7856C134.937 15.7856 132.696 18.3609 132.696 23.5782V24.013H145.873V23.5782Z" fill="#F8B500"/>
<path id="Vector_7" d="M160.889 36.655C160.889 37.6249 160.555 38.4276 159.919 39.0631C159.284 39.6651 158.515 39.9995 157.612 39.9995C156.675 39.9995 155.906 39.6985 155.27 39.0631C154.635 38.4611 154.334 37.6584 154.334 36.655C154.334 35.6851 154.635 34.8825 155.27 34.247C155.906 33.6116 156.675 33.3105 157.612 33.3105C158.515 33.3105 159.284 33.6116 159.919 34.247C160.555 34.8825 160.889 35.6851 160.889 36.655Z" fill="#666666"/>
<path id="Vector_8" d="M175.469 39.9658C174.667 39.9658 173.83 39.9324 172.894 39.8989C171.957 39.8655 171.054 39.7986 170.118 39.7317C169.182 39.6648 168.279 39.5645 167.376 39.4642C166.774 39.3973 166.205 39.2969 165.67 39.1966C165.202 39.0963 164.867 38.6949 164.867 38.2267V1.77185C164.867 1.30362 165.202 0.868835 165.67 0.801946C166.205 0.701611 166.774 0.601277 167.376 0.534387C168.279 0.434053 169.182 0.333718 170.118 0.266829C171.054 0.199939 171.957 0.133049 172.861 0.0996045C173.764 0.0661597 174.6 0.0327148 175.402 0.0327148C177.677 0.0327148 179.784 0.199939 181.757 0.534387C183.73 0.868835 185.469 1.4374 186.907 2.27352C188.345 3.07619 189.516 4.14643 190.319 5.48422C191.155 6.82201 191.556 8.42736 191.556 10.3672C191.556 12.5076 191.054 14.2802 190.018 15.6514C189.014 17.0227 187.643 18.0595 185.937 18.7284C188.245 19.3973 190.085 20.4675 191.422 21.9725C192.794 23.4441 193.462 25.5177 193.462 28.1933C193.462 32.1063 192.024 35.0829 189.115 37.0561C186.305 38.9959 181.723 39.9658 175.469 39.9658ZM170.319 16.9223H176.105C177.476 16.9223 178.747 16.822 179.951 16.6548C181.155 16.4541 182.192 16.1197 183.095 15.6514C183.998 15.1498 184.667 14.5143 185.202 13.7116C185.703 12.909 185.971 11.9056 185.971 10.7016C185.971 9.56449 185.703 8.62803 185.168 7.82536C184.633 7.05613 183.897 6.42067 182.994 5.95245C182.058 5.48422 180.988 5.11633 179.75 4.91566C178.513 4.68154 177.175 4.58121 175.77 4.58121C174.366 4.58121 173.262 4.61465 172.493 4.6481C171.69 4.68154 170.988 4.74843 170.352 4.81532V16.9223H170.319ZM170.319 21.3371V35.1498C170.72 35.1832 171.222 35.2167 171.79 35.2501C172.292 35.2836 172.861 35.317 173.529 35.3504C174.198 35.3839 174.968 35.3839 175.837 35.3839C177.476 35.3839 179.014 35.2836 180.452 35.0829C181.891 34.8822 183.195 34.5143 184.265 33.9792C185.369 33.4441 186.238 32.7083 186.907 31.7718C187.576 30.8354 187.911 29.6314 187.911 28.1933C187.911 26.9223 187.677 25.8187 187.175 24.9491C186.673 24.0461 185.971 23.3438 185.068 22.8086C184.131 22.2735 183.028 21.9056 181.757 21.6715C180.486 21.4374 179.048 21.3371 177.442 21.3371H170.319Z" fill="white"/>
<path id="Vector_9" d="M202.296 0H205.775C206.343 0 206.778 0.434783 206.778 1.00334V38.9632C206.778 39.5318 206.343 39.9666 205.775 39.9666H202.296C201.728 39.9666 201.293 39.5318 201.293 38.9632V1.00334C201.293 0.434783 201.728 0 202.296 0Z" fill="white"/>
</g>
</svg>
