<?xml version="1.0" standalone="no"?><!DOCTYPE svg PUBLIC "-//W3C//DTD SVG 1.1//EN" "http://www.w3.org/Graphics/SVG/1.1/DTD/svg11.dtd"><svg t="1691655198865" class="icon" viewBox="0 0 1024 1024" version="1.1" xmlns="http://www.w3.org/2000/svg" p-id="2013" xmlns:xlink="http://www.w3.org/1999/xlink" width="200" height="200"><path d="M123.2 319.52l777.6 0c23.861 0 43.2-19.339 43.2-43.2s-19.339-43.2-43.2-43.2l-777.6 0c-23.861 0-43.2 19.339-43.2 43.2s19.339 43.2 43.2 43.2zM900.397 478.28l-776.808 0c-24.082 0-43.589 19.522-43.589 43.589l0 0.303c0 24.082 19.507 43.589 43.589 43.589l776.808 0c24.096 0 43.603-19.508 43.603-43.589l0-0.303c0-24.068-19.507-43.589-43.603-43.589zM900.8 699.68l-777.6 0c-23.861 0-43.2 19.339-43.2 43.2 0 23.866 19.339 43.2 43.2 43.2l777.6 0c23.861 0 43.2-19.334 43.2-43.2 0-23.861-19.339-43.2-43.2-43.2z" fill="#ffffff" p-id="2014"></path></svg>