<svg width="16" height="12" viewBox="0 0 16 12" fill="none" xmlns="http://www.w3.org/2000/svg">
<rect width="16" height="12" fill="black"/>
<path d="M1.93159 5.47365V1.7655C1.84576 1.85132 1.70024 1.94741 1.49501 2.05375C1.29164 2.1601 1.1032 2.23473 0.929688 2.27764V1.74031C1.15917 1.67687 1.40452 1.57613 1.66572 1.43806C1.92692 1.29813 2.12749 1.1666 2.26742 1.04346H2.47452V5.47365H1.93159Z" fill="#EA3553"/>
<path d="M3.95498 3.39149C3.95498 2.62654 4.08185 2.04816 4.33559 1.65635C4.58933 1.26268 4.95688 1.06585 5.43824 1.06585C6.35618 1.06585 6.81516 1.80654 6.81516 3.28794C6.81516 4.01931 6.68549 4.57903 6.42615 4.9671C6.16868 5.35331 5.80673 5.54641 5.34029 5.54641C4.89998 5.54641 4.55855 5.36264 4.316 4.99509C4.07532 4.62754 3.95498 4.093 3.95498 3.39149ZM4.5147 3.3663C4.5147 4.51746 4.80669 5.09304 5.39067 5.09304C5.96531 5.09304 6.25264 4.50813 6.25264 3.33831C6.25264 2.12745 5.97091 1.52202 5.40746 1.52202C4.81229 1.52202 4.5147 2.13678 4.5147 3.3663Z" fill="#EA3553"/>
<path d="M7.39727 5.18539C7.39727 5.08464 7.43178 4.99975 7.50081 4.93072C7.56985 4.86169 7.65567 4.82717 7.75829 4.82717C7.86277 4.82717 7.94952 4.86262 8.01856 4.93352C8.08759 5.00255 8.12211 5.08651 8.12211 5.18539C8.12211 5.28241 8.08759 5.36637 8.01856 5.43727C7.94952 5.5063 7.86183 5.54082 7.75549 5.54082C7.65287 5.54082 7.56705 5.5063 7.49802 5.43727C7.43085 5.36637 7.39727 5.28241 7.39727 5.18539Z" fill="#EA3553"/>
<path d="M8.70142 3.39149C8.70142 2.62654 8.82829 2.04816 9.08203 1.65635C9.33577 1.26268 9.70332 1.06585 10.1847 1.06585C11.1026 1.06585 11.5616 1.80654 11.5616 3.28794C11.5616 4.01931 11.4319 4.57903 11.1726 4.9671C10.9151 5.35331 10.5532 5.54641 10.0867 5.54641C9.64641 5.54641 9.30498 5.36264 9.06244 4.99509C8.82176 4.62754 8.70142 4.093 8.70142 3.39149ZM9.26114 3.3663C9.26114 4.51746 9.55313 5.09304 10.1371 5.09304C10.7117 5.09304 10.9991 4.50813 10.9991 3.33831C10.9991 2.12745 10.7173 1.52202 10.1539 1.52202C9.55872 1.52202 9.26114 2.13678 9.26114 3.3663Z" fill="#EA3553"/>
<path d="M13.4059 5.47365V1.7655C13.32 1.85132 13.1745 1.94741 12.9693 2.05375C12.7659 2.1601 12.5775 2.23473 12.404 2.27764V1.74031C12.6335 1.67687 12.8788 1.57613 13.14 1.43806C13.4012 1.29813 13.6018 1.1666 13.7417 1.04346H13.9488V5.47365H13.4059Z" fill="#EA3553"/>
<path d="M1.93159 11.2051V7.49694C1.84576 7.58277 1.70024 7.67885 1.49501 7.7852C1.29164 7.89155 1.1032 7.96618 0.929688 8.00909V7.47176C1.15917 7.40832 1.40452 7.30757 1.66572 7.16951C1.92692 7.02958 2.12749 6.89804 2.26742 6.7749H2.47452V11.2051H1.93159Z" fill="#42A4F4"/>
<path d="M4.69381 10.5082L4.21525 11.9999H3.81785L4.16488 10.5082H4.69381Z" fill="#42A4F4"/>
<path d="M5.33749 9.12293C5.33749 8.35798 5.46436 7.7796 5.7181 7.3878C5.97184 6.99413 6.33939 6.79729 6.82075 6.79729C7.7387 6.79729 8.19767 7.53799 8.19767 9.01938C8.19767 9.75075 8.068 10.3105 7.80866 10.6985C7.55119 11.0848 7.18924 11.2779 6.7228 11.2779C6.28249 11.2779 5.94106 11.0941 5.69851 10.7265C5.45783 10.359 5.33749 9.82445 5.33749 9.12293ZM5.89721 9.09775C5.89721 10.2489 6.1892 10.8245 6.77318 10.8245C7.34782 10.8245 7.63515 10.2396 7.63515 9.06976C7.63515 7.8589 7.35342 7.25346 6.78997 7.25346C6.1948 7.25346 5.89721 7.86822 5.89721 9.09775Z" fill="#42A4F4"/>
<path d="M8.70142 9.12293C8.70142 8.35798 8.82829 7.7796 9.08203 7.3878C9.33577 6.99413 9.70332 6.79729 10.1847 6.79729C11.1026 6.79729 11.5616 7.53799 11.5616 9.01938C11.5616 9.75075 11.4319 10.3105 11.1726 10.6985C10.9151 11.0848 10.5532 11.2779 10.0867 11.2779C9.64641 11.2779 9.30498 11.0941 9.06244 10.7265C8.82176 10.359 8.70142 9.82445 8.70142 9.12293ZM9.26114 9.09775C9.26114 10.2489 9.55313 10.8245 10.1371 10.8245C10.7117 10.8245 10.9991 10.2396 10.9991 9.06976C10.9991 7.8589 10.7173 7.25346 10.1539 7.25346C9.55872 7.25346 9.26114 7.86822 9.26114 9.09775Z" fill="#42A4F4"/>
<path d="M12.0653 9.12293C12.0653 8.35798 12.1922 7.7796 12.446 7.3878C12.6997 6.99413 13.0672 6.79729 13.5486 6.79729C14.4665 6.79729 14.9255 7.53799 14.9255 9.01938C14.9255 9.75075 14.7958 10.3105 14.5365 10.6985C14.279 11.0848 13.9171 11.2779 13.4507 11.2779C13.0103 11.2779 12.6689 11.0941 12.4264 10.7265C12.1857 10.359 12.0653 9.82445 12.0653 9.12293ZM12.6251 9.09775C12.6251 10.2489 12.9171 10.8245 13.501 10.8245C14.0757 10.8245 14.363 10.2396 14.363 9.06976C14.363 7.8589 14.0813 7.25346 13.5178 7.25346C12.9226 7.25346 12.6251 7.86822 12.6251 9.09775Z" fill="#42A4F4"/>
</svg>
