<svg width="12" height="12" viewBox="0 0 12 12" fill="none" xmlns="http://www.w3.org/2000/svg">
<rect width="12" height="12" rx="1" fill="#F3BF08"/>
<path d="M5.94497 11.4697L5.41465 12L0.490234 7.07559L2.57364 4.99218L3.0282 5.44674L1.47512 6.99983L3.2176 8.74231L4.46764 7.49227L4.92221 7.94683L3.67216 9.19687L5.94497 11.4697Z" fill="black"/>
<path d="M3.53579 4.03003L4.33128 3.23455L10.3694 7.04528L9.83904 7.5756L8.44506 6.69679L6.99803 8.14381L7.87685 9.53779L7.34653 10.0681L3.53579 4.03003ZM4.52068 4.227L6.64196 7.59076L7.88443 6.34829L4.52068 4.227Z" fill="black"/>
<path d="M7.56582 0L8.02038 0.454561L7.0355 1.43944L11.5054 5.9093L10.975 6.43962L6.50518 1.96976L5.5203 2.95465L5.06574 2.50009L7.56582 0Z" fill="black"/>
</svg>
