<svg width="12" height="12" viewBox="0 0 12 12" fill="none" xmlns="http://www.w3.org/2000/svg">
<rect width="12" height="12" rx="1" fill="#30C8D1"/>
<path d="M0.941406 6.58082L1.65535 5.86687L7.07453 9.28701L6.59857 9.76297L5.34747 8.97423L4.04877 10.2729L4.83751 11.524L4.36154 12L0.941406 6.58082ZM1.82534 6.75761L3.72919 9.77657L4.84431 8.66146L1.82534 6.75761Z" fill="black"/>
<path d="M6.4672 6.22263L6.05923 5.81466L7.29673 4.57716L9.54056 6.82098L9.33657 7.02497L8.72462 6.76659C8.79262 7.02497 8.79942 7.28108 8.74502 7.53493C8.68609 7.78424 8.56597 7.99956 8.38465 8.18088C7.72737 8.83816 7.08141 8.84949 6.4468 8.21488L3.72701 5.49509C3.4233 5.19138 3.28278 4.865 3.30544 4.51596C3.32357 4.16239 3.51849 3.79975 3.89019 3.42805C4.2619 3.05634 4.6268 2.85916 4.98491 2.83649C5.33848 2.80929 5.66712 2.94755 5.97083 3.25126L6.34481 3.62523L5.86884 4.10119L5.49487 3.72722C5.13223 3.36458 4.7356 3.39858 4.30496 3.82921C3.87433 4.25985 3.84033 4.65648 4.20297 5.01912L6.92276 7.73891C7.09501 7.91117 7.265 8.00863 7.43272 8.03129C7.60044 8.05396 7.77949 7.9701 7.96988 7.77971C8.1648 7.58479 8.26679 7.32868 8.27586 7.01137C8.28946 6.68953 8.22373 6.45608 8.07867 6.31102L7.22874 5.46109L6.4672 6.22263Z" fill="black"/>
<path d="M7.52222 0L7.93019 0.407969L7.04626 1.2919L11.058 5.30359L10.582 5.77955L6.5703 1.76786L5.68637 2.6518L5.2784 2.24383L7.52222 0Z" fill="black"/>
</svg>
